<svg id="Capa_1" enable-background="new 0 0 512 512" height="512" viewBox="0 0 512 512" width="512" xmlns="http://www.w3.org/2000/svg"><path d="m511.978 259.39c-1.14 87.142-45.775 163.678-113.092 209.048-94.039 28.381-194.442 27.815-288.155-1.624-67.3-46.469-111.222-124.308-110.727-212.256.797-141.378 116.06-255.35 257.438-254.554 141.033.794 256.381 118.363 254.536 259.386z" fill="#82f700"/><path d="m511.996 257.442c-.495 87.938-45.285 165.283-113.097 210.99-.005.002-.009.004-.014.006-94.039 28.381-194.442 27.815-288.155-1.624l-1.913-1.331c-66.218-46.613-109.304-123.817-108.813-210.925.26-46.219 12.754-89.5 34.395-126.808 43.685 77.317 126.431 129.714 221.59 130.25s178.5-50.925 223.043-127.745c21.219 37.55 33.224 80.968 32.964 127.187z" fill="#03cc7f"/><path d="m400.144 467.63c-41.04 28-90.65 44.37-144.08 44.37s-103.04-16.37-144.08-44.37c.06-53.48 29.26-100.14 72.58-124.93 7.54-4.33 15.52-7.98 23.85-10.9 3.87-1.36 7.81-2.55 11.82-3.58 4.96-1.27 10.02-2.29 15.16-3.02 6.75-.98 13.65-1.48 20.67-1.48 12.38 0 24.4 1.56 35.87 4.51 4.01 1.03 7.95 2.22 11.81 3.58 56.09 19.65 96.33 73.04 96.4 135.82z" fill="#fff"/><path d="m400.144 467.63c-41.04 28-90.65 44.37-144.08 44.37v-188.28c12.38 0 24.4 1.56 35.87 4.51 4.01 1.03 7.95 2.22 11.81 3.58 56.09 19.65 96.33 73.04 96.4 135.82z" fill="#d1f6ff"/><path d="m273.596 511.407-.002.004c-5.79.39-11.64.59-17.53.59-5.9 0-11.75-.2-17.55-.59-2.728-6.486-3.757-13.561-2.988-20.555l13.618-123.895h13.84l13.615 123.853c.771 7.007-.263 14.096-3.003 20.593z" fill="#234177"/><path d="m273.596 511.407-.002.004c-5.79.39-11.64.59-17.53.59v-145.041h6.92l13.615 123.853c.771 7.008-.263 14.097-3.003 20.594z" fill="#323b5a"/><path d="m275.234 349.59-7.32 22.54h-23.7l-7.32-22.54 19.17-13.92z" fill="#234177"/><path d="m275.234 349.59-7.32 22.54h-11.85v-36.46z" fill="#323b5a"/><path d="m277.254 369.36-21.17-23.369-.02-.03-21.18 23.389c-12.1-6.84-18.76-19.37-16.34-32.21l6.92-36.64h61.23l6.92 36.64c2.42 12.85-4.24 25.39-16.36 32.22z" fill="#d1f6ff"/><path d="m277.254 369.36-21.17-23.369v-45.491h30.61l6.92 36.64c2.42 12.85-4.24 25.39-16.36 32.22z" fill="#8fc9f7"/><path d="m146.073 199.204c-13.53 0-24.499 10.968-24.499 24.499 0 24.644 19.978 44.623 44.623 44.623v-69.174z" fill="#ffa87a"/><path d="m366.088 199.204c13.53 0 24.499 10.968 24.499 24.499 0 24.644-19.978 44.623-44.623 44.623v-69.174z" fill="#e3835a"/><path d="m351.844 203.809v36.101c0 52.867-42.858 95.747-95.747 95.758-.011 0-.011 0-.022 0-52.867 0-95.747-42.891-95.747-95.758v-36.101c0-5.449.439-10.778 1.34-15.963 6.251-37.31 34.08-67.281 70.203-76.718 7.723-2.01 15.853-3.076 24.203-3.076h.022c8.372 0 16.491 1.066 24.225 3.098 36.112 9.415 63.919 39.386 70.17 76.696.891 5.186 1.353 10.514 1.353 15.963z" fill="#ffc0a4"/><path d="m351.84 203.805v36.102c0 52.866-42.857 95.751-95.742 95.761v-227.615c8.373 0 16.49 1.069 24.219 3.094 36.121 9.413 63.926 39.394 70.179 76.698.89 5.184 1.344 10.52 1.344 15.96z" fill="#ffa87a"/><ellipse cx="226.025" cy="235.214" fill="#323b5a" rx="11.789" ry="11.789" transform="matrix(.924 -.383 .383 .924 -72.807 104.401)"/><ellipse cx="286.103" cy="235.214" fill="#323b5a" rx="11.789" ry="11.789" transform="matrix(.924 -.383 .383 .924 -68.234 127.392)"/><path d="m291.125 287.183c0 7.053-5.718 12.771-12.773 12.771h-12.47c-3.94 0-7.461-1.786-9.803-4.59-2.342 2.804-5.863 4.59-9.803 4.59h-12.47c-3.526 0-6.72-1.43-9.033-3.74-2.311-2.313-3.74-5.504-3.74-9.031h.537c5.716 0 11.001-2.839 14.347-7.472 2.429-3.362 6.453-5.494 10.963-5.287 3.681.17 6.97 1.925 9.199 4.59 2.227-2.665 5.518-4.419 9.199-4.59 4.51-.208 8.534 1.925 10.963 5.287 3.346 4.633 8.631 7.472 14.347 7.472z" fill="#234177"/><path d="m291.125 287.183c0 7.053-5.718 12.771-12.773 12.771h-12.47c-3.94 0-7.461-1.786-9.803-4.59v-16.351c2.227-2.665 5.518-4.419 9.199-4.59 4.51-.208 8.534 1.925 10.963 5.287 3.346 4.633 8.631 7.472 14.347 7.472h.537z" fill="#323b5a"/><path d="m256.064 263.276c-4.018 0-7.275-3.257-7.275-7.275v-31.235c0-4.018 3.257-7.275 7.275-7.275 4.019 0 7.276 3.257 7.276 7.275v31.234c0 4.018-3.258 7.276-7.276 7.276z" fill="#e3835a"/><path d="m368.274 190.14c0 5.95-1.89 11.76-5.41 16.57l-11.06 15.15v-13.9c0-4.866-3.944-8.81-8.81-8.81h-18.94c-22.4 0-42.96-12.37-53.45-32.16l-14.54-27.42-14.54 27.42c-10.49 19.79-31.05 32.16-53.45 32.16h-18.94c-4.866 0-8.81 3.944-8.81 8.81v13.9l-11.06-15.15c-3.52-4.81-5.41-10.62-5.41-16.57 0-55.963 45.367-101.33 101.33-101.33h21.76c55.963 0 101.33 45.367 101.33 101.33z" fill="#234177"/><path d="m368.274 190.14c0 5.95-1.89 11.76-5.41 16.57l-11.06 15.15v-13.9c0-4.866-3.944-8.81-8.81-8.81h-18.94c-22.4 0-42.96-12.37-53.45-32.16l-14.54-27.42v-50.76h10.88c55.963 0 101.33 45.367 101.33 101.33z" fill="#323b5a"/><path d="m382.289 103.256-7.775 13.695v34.18l-118.45.05-118.45-.05v-34.18l-7.775-13.695c-5.862-10.325 1.596-23.135 13.469-23.135h225.512c11.873-.001 19.331 12.809 13.469 23.135z" fill="#4e689b"/><path d="m382.289 103.256-7.775 13.695v34.18l-118.45.05v-71.061h112.756c11.873 0 19.331 12.81 13.469 23.136z" fill="#374c81"/><path d="m242.609 211.615c-2.732-6.46-9.129-10.992-16.584-10.992s-13.851 4.532-16.584 10.992z" fill="#234177"/><path d="m302.686 211.615c-2.732-6.46-9.129-10.992-16.584-10.992s-13.851 4.532-16.584 10.992z" fill="#323b5a"/><path d="m374.514 169.71c-34.98 19.82-75.38 31.19-118.45 31.19s-83.47-11.37-118.45-31.19z" fill="#374c81"/><path d="m137.614 139.51h236.9v30.2h-236.9z" fill="#faea00"/><ellipse cx="256.064" cy="111.11" fill="#fff" rx="20.39" ry="20.39" transform="matrix(.383 -.924 .924 .383 55.42 305.162)"/><path d="m181.823 375.936-34.741 24.421c-5.747 4.04-13.681 2.656-17.721-3.091l-5.977-8.503c-4.04-5.747-2.656-13.681 3.091-17.721l34.741-24.421c5.747-4.04 13.681-2.656 17.721 3.091l5.977 8.503c4.04 5.747 2.656 13.681-3.091 17.721z" fill="#4e689b"/><path d="m330.305 375.936 34.741 24.421c5.747 4.04 13.681 2.656 17.721-3.091l5.977-8.503c4.04-5.747 2.656-13.681-3.091-17.721l-34.741-24.421c-5.747-4.04-13.681-2.656-17.721 3.091l-5.977 8.503c-4.04 5.747-2.656 13.681 3.091 17.721z" fill="#374c81"/><path d="m224.204 424.01c-1.39 1.38-1.53 1.61-1.53 2.44 0 .84.14 1.06 1.53 2.45 1.78 1.77 4.47 4.45 4.47 9.52s-2.69 7.75-4.47 9.53c-1.39 1.38-1.53 1.61-1.53 2.44 0 .84.14 1.07 1.53 2.45 1.78 1.78 4.47 4.46 4.47 9.53s-2.69 7.75-4.47 9.52c-1.39 1.39-1.53 1.62-1.53 2.45s.14 1.06 1.53 2.45c1.78 1.78 4.47 4.46 4.47 9.53s-2.69 7.75-4.47 9.53c-.25.25-.51.5-.75.76-3.93 4.25-9.37 6.69-14.93 6.69h-18.83c-9.32-2.48-18.44-5.49-27.31-8.99-1.31-2.42-2.06-5.19-2.06-8.13v-13.3c0-2.76 2.23-5 5-5 2.76 0 5 2.24 5 5v13.3c0 3.92 3.19 7.12 7.12 7.12h31.08c2.82 0 5.52-1.23 7.59-3.47.33-.37.68-.71 1.02-1.06 1.39-1.39 1.54-1.62 1.54-2.45 0-.84-.15-1.07-1.54-2.45-1.78-1.78-4.46-4.46-4.46-9.53s2.68-7.75 4.46-9.53c1.39-1.38 1.54-1.61 1.54-2.44 0-.84-.15-1.07-1.54-2.45-1.78-1.78-4.46-4.46-4.46-9.53 0-5.06 2.68-7.75 4.46-9.52 1.39-1.39 1.54-1.62 1.54-2.45s-.15-1.06-1.54-2.44c-1.78-1.78-4.46-4.46-4.46-9.53 0-5.06 2.68-7.75 4.46-9.52 1.39-1.39 1.54-1.62 1.54-2.45s-.15-1.06-1.54-2.45c-1.78-1.77-4.46-4.45-4.46-9.52s2.68-7.75 4.46-9.53c1.39-1.38 1.54-1.61 1.54-2.44s-.15-1.06-1.54-2.45c-1.78-1.77-4.46-4.46-4.46-9.52 0-2.25.55-4.31 1.65-6.14 1.76-2.93 1.15-6.95-1.45-9.56l-28.17-28.17c-1.95-1.95-1.95-5.12 0-7.07 1.96-1.95 5.12-1.95 7.07 0l28.17 28.17c5.9 5.9 7.11 14.86 2.95 21.79-.11.18-.22.42-.22.98 0 .83.14 1.06 1.53 2.44 1.78 1.78 4.47 4.46 4.47 9.53s-2.69 7.75-4.47 9.52c-1.39 1.39-1.53 1.62-1.53 2.45s.14 1.06 1.53 2.45c1.78 1.77 4.47 4.45 4.47 9.52s-2.69 7.75-4.47 9.53z" fill="#234177"/><path d="m191.929 421.49v50.02c0 6.35-5.15 11.49-11.49 11.49h-30.24c-6.35 0-11.49-5.14-11.49-11.49v-50.02c0-6.35 5.14-11.49 11.49-11.49h30.24c6.34 0 11.49 5.14 11.49 11.49z" fill="#4e689b"/><path d="m191.929 421.49v50.02c0 6.35-5.15 11.49-11.49 11.49h-15.12v-73h15.12c6.34 0 11.49 5.14 11.49 11.49z" fill="#374c81"/><path d="m191.929 421.49v17.85c0 3.95-3.21 7.16-7.16 7.16h-38.9c-3.95 0-7.16-3.21-7.16-7.16v-17.85c0-6.35 5.14-11.49 11.49-11.49h30.24c6.35 0 11.49 5.14 11.49 11.49z" fill="#374c81"/><g fill="#234177"><path d="m191.929 421.49v17.85c0 3.95-3.21 7.16-7.16 7.16h-19.45v-36.5h15.12c6.35 0 11.49 5.14 11.49 11.49z"/><path d="m149.8 438.229c-2.143 0-3.88-1.737-3.88-3.879v-13.256c0-2.143 1.737-3.879 3.879-3.879 2.143 0 3.879 1.737 3.879 3.879v13.256c.001 2.142-1.736 3.879-3.878 3.879z"/><path d="m169.199 421.09v13.26c0 2.14-1.74 3.88-3.88 3.88s-3.88-1.74-3.88-3.88v-13.26c0-2.14 1.74-3.88 3.88-3.88 1.07 0 2.04.43 2.74 1.14.71.7 1.14 1.67 1.14 2.74z"/></g><path d="m180.836 438.229c-2.143 0-3.88-1.737-3.88-3.879v-13.256c0-2.143 1.737-3.879 3.879-3.879 2.143 0 3.879 1.737 3.879 3.879v13.256c.001 2.142-1.736 3.879-3.878 3.879z" fill="#323b5a"/><path d="m169.199 421.09v13.26c0 2.14-1.74 3.88-3.88 3.88v-21.02c1.07 0 2.04.43 2.74 1.14.71.7 1.14 1.67 1.14 2.74z" fill="#323b5a"/><path d="m234.505 339.808 2.59 5.249 5.792.841-4.191 4.086.99 5.768-5.181-2.723-5.18 2.723.989-5.768-4.191-4.086 5.792-.841z" fill="#ffc300"/><path d="m344.83 463.907h-47.7c-2.096 0-3.796-1.699-3.796-3.796v-23.865c0-2.096 1.699-3.796 3.796-3.796h47.7c2.096 0 3.796 1.699 3.796 3.796v23.865c0 2.097-1.7 3.796-3.796 3.796z" fill="#4e689b"/><path d="m318.574 438.23h4.812c1.526 0 2.83-1.097 3.093-2.6l.918-5.258c.532-3.048-1.814-5.839-4.908-5.839h-3.019c-3.094 0-5.44 2.791-4.908 5.839l.918 5.258c.264 1.504 1.568 2.6 3.094 2.6z" fill="#8fc9f7"/><circle cx="307.71" cy="448.179" fill="#8fc9f7" r="7.441"/><path d="m320.425 450.659h21.496v4.961h-21.496z" fill="#323b5a"/><path d="m320.425 440.738h21.496v4.961h-21.496z" fill="#323b5a"/><path d="m374.514 169.71c-34.98 19.82-75.38 31.19-118.45 31.19v-31.19z" fill="#234177"/><path d="m276.454 111.11c0 11.26-9.13 20.39-20.39 20.39v-40.78c11.26 0 20.39 9.13 20.39 20.39z" fill="#d1f6ff"/><path d="m256.064 139.51h118.45v30.2h-118.45z" fill="#ffc300"/></svg>